grf
version=1
nRows=23
nColumns=28
inDegrees=no
endheader
time	ground_force_1_vx	ground_force_1_vy	ground_force_1_vz	ground_force_1_px	ground_force_1_py	ground_force_1_pz	ground_moment_1_mx	ground_moment_1_my	ground_moment_1_mz	ground_force_2_vx	ground_force_2_vy	ground_force_2_vz	ground_force_2_px	ground_force_2_py	ground_force_2_pz	ground_moment_2_mx	ground_moment_2_my	ground_moment_2_mz	ground_force_3_vx	ground_force_3_vy	ground_force_3_vz	ground_force_3_px	ground_force_3_py	ground_force_3_pz	ground_moment_3_mx	ground_moment_3_my	ground_moment_3_mz
      0.45000000	      0.16212288	      0.03726629	      1.10757038	    344.99892988	  -1407.13556465	      2.27993057	      0.05866079	      0.21211817	    116.22933759	     17.13607481	     20.83285486	   -692.91594831	    431.82485491	  -1757.35301509	      0.13945973	      0.19852149	      2.56746617	  -3076.52646879	      1.46276205	     -0.73377711	      5.49816383	    486.32472919	   -321.41998296	      0.46797241	     -0.12156169	      0.89298332	    434.82942981
      0.46000000	      0.41252885	      0.15586084	      1.34405458	    338.28915041	  -1471.18397728	      2.40020513	     -0.00330341	     -0.01194518	     -6.54531555	     18.42828829	     29.25234154	   -748.48261644	    432.42884422	  -1755.75820377	      0.14082963	      0.23805345	      3.07873052	  -3689.16094525	      1.74827228	     -0.96053012	      4.88414392	    478.98218053	   -271.72008332	      0.36385399	     -0.09996353	      0.73432481	    357.57223106
      0.47000000	      0.61083652	      0.27966258	      1.57477902	    415.12793466	  -1406.41990504	      2.24323048	      0.02091081	      0.07561378	     41.43227787	     20.93777171	     40.91592982	   -808.21540146	    432.90429073	  -1754.18628627	      0.14217213	      0.27746318	      3.58841413	  -4299.90127273	      1.64674441	     -0.81746078	      4.55276549	    487.33301398	   -231.11036503	      0.28279080	     -0.14828983	      1.08932624	    530.43667868
      0.48000000	      0.66594349	      0.16949445	      1.75291976	    404.73208782	  -1373.40073066	      2.18821736	      0.01746081	      0.06313852	     34.59650709	     24.36912911	     53.50197525	   -871.18453228	    433.08535552	  -1752.74715656	      0.14338482	      0.30289727	      3.91735166	  -4694.05836731	      1.64719822	     -0.89691396	      4.43933333	    486.30489259	   -316.40210050	      0.45766194	     -0.10804727	      0.79370735	    386.48797099
      0.49000000	      0.53922512	      0.16294422	      1.52799339	    391.12329553	  -1413.37417472	      2.26803710	      0.03276731	      0.11848702	     64.92450765	     29.92722034	     67.27510104	   -935.49390854	    433.12339890	  -1751.20290466	      0.14467600	      0.32169420	      4.16045109	  -4985.35796358	      1.62283634	     -0.61078477	      4.55810286	    505.94633874	   -271.06173494	      0.37004012	     -0.15857005	      1.16484400	    567.20930971
      0.50000000	      0.52542723	      0.19647675	      1.02583970	    440.66465737	  -1509.17761568	      2.41787462	     -0.03064609	     -0.11081666	    -60.72156038	     35.96223440	     84.51721549	   -996.92651514	    433.40735326	  -1749.50665680	      0.14610990	      0.32055624	      4.14573395	  -4967.72279980	      1.54251506	     -0.85418475	      4.55361082	    456.58611445	   -257.60578376	      0.32860720	     -0.13441594	      0.98740971	    480.80942843
      0.51000000	      0.79521787	      0.17875635	      1.71791009	    385.39875155	  -1385.85400646	      2.22070205	      0.01218538	      0.04406250	     24.14387979	     44.01657288	    104.67787264	  -1055.65277631	    433.35689519	  -1748.07287742	      0.14730318	      0.28909885	      3.73889748	  -4480.22147651	      1.58931766	     -0.79143697	      5.39806292	    476.56641567	   -300.55650981	      0.42239828	     -0.11366611	      0.83498292	    406.58670300
      0.52000000	      0.51349996	      0.30885417	      1.00550749	    461.04316272	  -1612.84195815	      2.59677672	     -0.02598031	     -0.09394514	    -51.47687704	     50.81791883	    124.95913858	  -1106.85617841	    433.46144821	  -1746.28089160	      0.14880540	      0.25710348	      3.32510336	  -3984.38297367	      1.72915623	     -0.84559564	      4.83336301	    465.37665099	   -324.32983586	      0.46809192	     -0.09941046	      0.73026194	    355.59385818
      0.53000000	      0.57709007	      0.07489228	      1.44630300	    422.74712645	  -1451.19744102	      2.32110394	      0.03847053	      0.13910994	     76.22475569	     54.82445234	    146.21157521	  -1148.52732533	    433.74817431	  -1744.66332994	      0.15017382	      0.23063474	      2.98278478	  -3574.19172210	      1.73353125	     -0.86261066	      5.10265921	    475.28677752	   -300.09446906	      0.42109168	     -0.09748816	      0.71614091	    348.71775840
      0.54000000	      0.66624056	      0.04342691	      1.80093944	    420.77999406	  -1459.92739857	      2.33802890	     -0.02319737	     -0.08388198	    -45.96280875	     56.53449598	    166.20348311	  -1179.02532349	    434.16117741	  -1742.36552748	      0.15211806	      0.20910132	      2.70429436	  -3240.48405482	      1.75179373	     -0.67964668	      5.44579857	    456.41926478	   -349.78663678	      0.51786689	     -0.10404754	      0.76432566	    372.18084921
      0.55000000	      0.72765776	      0.31757943	      1.89539092	    456.36079364	  -1380.07582564	      2.17434245	      0.03566997	      0.12898306	     70.67577224	     56.81697546	    185.04123344	  -1198.77284194	    434.74489051	  -1740.11565059	      0.15403333	      0.17880067	      2.31241791	  -2770.90892043	      1.70131761	     -1.05097035	      4.79026371	    483.34190221	   -293.39281594	      0.40958080	     -0.13033421	      0.95742557	    466.20894934
      0.56000000	      0.61181538	      0.24697783	      1.59458421	    447.58410540	  -1469.16051061	      2.34135130	      0.00100937	      0.00364988	      1.99993892	     56.03418296	    206.01730751	  -1202.43362244	    435.24236481	  -1738.05597200	      0.15578430	      0.13424303	      1.73615678	  -2080.39052189	      1.68964359	     -0.83685469	      4.91139218	    488.99506853	   -296.15256012	      0.41682873	     -0.13070601	      0.96015679	    467.53888811
      0.57000000	      0.73857163	      0.25994684	      1.92151045	    460.65612079	  -1396.48016490	      2.20211247	      0.01258205	      0.04549686	     24.92983104	     53.99640015	    227.70383526	  -1189.24992795	    436.00788848	  -1735.98369118	      0.15756309	      0.11323528	      1.46446489	  -1754.82934740	      1.87748447	     -1.01812463	      4.86700002	    487.69104494	   -289.23546940	      0.40225896	     -0.14319878	      1.05192780	    512.22587889
      0.58000000	     -4.24213499	     43.64717884	    -73.90212065	    588.82922941	  -1147.57080631	      1.68316488	     -0.05996525	     -0.21683511	   -118.81396472	     46.91645590	    246.87272055	  -1158.63992357	    436.87376351	  -1733.92050945	      0.15934075	      0.10049874	      1.29974396	  -1557.44863637	      1.99527337	     -1.36616443	      4.80187203	    467.70242364	   -300.91048199	      0.42064718	     -0.16648894	      1.22301558	    595.53538763
      0.59000000	     34.04067639	    105.41130515	   -278.85328485	    558.69211703	  -1139.43330067	      1.68352412	      0.55337015	      2.00099361	   1096.43675687	     34.42052543	    262.29741368	  -1109.18780278	    438.01261830	  -1731.96970956	      0.16104225	      0.14139457	      1.82864724	  -2191.21937774	      2.44936105	     -1.15166779	      5.11733129	    516.95864870	   -334.06998263	      0.50251503	     -0.15437359	      1.13401711	    552.19845543
      0.60000000	     73.21235201	     38.70751757	   -412.42096846	    543.89977730	  -1119.98748516	      1.65550124	      0.11364971	      0.41095882	    225.18330278	     18.77671652	    275.35357141	  -1031.18827970	    439.34856175	  -1730.42076398	      0.16242110	      0.19532837	      2.52616972	  -3027.04203482	      1.82031421	     -1.12861825	      5.16992212	    506.71032275	   -276.99957070	      0.38244788	     -0.19426570	      1.42706167	    694.89361810
      0.61000000	     85.95810939	    -82.23031075	   -475.58315701	    541.14444612	  -1096.34294279	      1.61374064	     -1.30470676	     -4.71783650	  -2585.12036784	      3.25883031	    280.63998922	   -913.12291692	    440.82253157	  -1729.19376356	      0.16354019	      0.23869876	      3.08707628	  -3699.16145785	      1.93515122	     -0.97961968	      5.42388023	    511.11960659	   -327.88969408	      0.48819057	     -0.15041876	      1.10496519	    538.05191199
      0.62000000	     83.69306575	   -128.38098237	   -575.26808827	    545.10309193	  -1081.92095776	      1.58542264	     -2.63149687	     -9.51552667	  -5213.99625259	     -9.26771596	    266.26178874	   -753.27129312	    441.96260651	  -1727.05146915	      0.16540157	      0.23133471	      2.99183743	  -3585.03926625	      1.99942261	     -0.94484574	      4.54615626	    562.48399954	   -302.57683205	      0.45056657	     -0.19868389	      1.45951736	    710.69759665
      0.63000000	     68.45729274	   -153.28344612	   -755.88051388	    552.15108011	  -1069.24796934	      1.55873736	     -2.69371201	     -9.74049743	  -5337.26811354	    -14.98332160	    219.34739829	   -567.07867167	    442.71208900	  -1721.36432910	      0.17019605	      0.21179906	      2.73918413	  -3282.29153465	      1.91844638	     -0.68842311	      4.78675543	    546.07602653	   -327.61262846	      0.49739406	     -0.20031305	      1.47148500	    716.52512134
      0.64000000	     29.58900817	   -198.43123925	   -932.20012795	    558.43530355	  -1058.09728741	      1.53521576	     -0.63797849	     -2.30693848	  -1264.07806731	     -9.32459107	    146.72391900	   -389.73209328	    442.10816986	  -1709.35350682	      0.18018052	      0.14204306	      1.83703402	  -2201.26904437	      2.25789399	     -1.14468323	      4.90660890	    576.21477189	   -322.92184576	      0.49618652	     -0.20729154	      1.52274851	    741.48738039
      0.65000000	    -42.93318788	   -251.69409602	  -1105.04572857	    567.24237507	  -1043.39009346	      1.50393026	      2.28304798	      8.25553097	   4523.58645385	     -1.86609410	     82.10979362	   -254.98760144	    439.77669216	  -1695.17039629	      0.19186636	      0.06841096	      0.88475465	  -1060.17797484	      2.09900803	     -1.32583627	      4.34495436	    642.75063334	   -354.15405711	      0.57892713	     -0.24559803	      1.80414518	    878.51071980
      0.66000000	    -29.21955517	   -290.32217921	  -1182.25800587	    567.16599402	  -1034.11878148	      1.48704870	     -0.06563605	     -0.23734079	   -130.04997212	      4.82748809	     39.77875640	   -161.30381656	    438.19459290	  -1683.29687591	      0.20167313	      0.03733397	      0.48283788	   -578.57179395	      2.28279193	     -1.25322752	      4.50112181	    653.25427171	   -329.90827102	      0.53207142	     -0.27167208	      1.99568324	    971.77828710
      0.67000000	     -3.03453278	   -263.34753527	  -1173.05530829	    565.22157594	  -1030.84214549	      1.48205019	     -1.13307556	     -4.09721585	  -2245.05367122	      9.97748863	     23.05154357	    -89.27717511	    435.77499852	  -1676.46933876	      0.20721481	      0.00997078	      0.12895143	   -154.51906915	      2.29609888	     -1.15483715	      4.82276177	    627.40682336	   -388.75692672	      0.64569945	     -0.19670082	      1.44494984	    703.60408626
